<?xml version="1.0" standalone="no"?>
<!DOCTYPE svg PUBLIC "-//W3C//DTD SVG 20010904//EN"
 "http://www.w3.org/TR/2001/REC-SVG-20010904/DTD/svg10.dtd">
<svg version="1.0" xmlns="http://www.w3.org/2000/svg"
 width="360.000000pt" height="410.000000pt" viewBox="0 0 360.000000 410.000000"
 preserveAspectRatio="xMidYMid meet">

<g transform="translate(0.000000,410.000000) scale(0.100000,-0.100000)"
fill="#000000" stroke="none">
<path d="M1170 4048 c-19 -5 -46 -18 -61 -29 -20 -14 -29 -16 -32 -7 -9 22
-75 -57 -88 -104 -6 -25 -9 -71 -6 -109 l6 -67 -60 30 c-32 16 -69 28 -81 26
-20 -3 -24 -11 -32 -73 -16 -121 -12 -174 16 -237 43 -94 95 -109 180 -53 30
20 38 22 38 10 0 -9 -19 -23 -42 -32 -24 -9 -68 -30 -98 -45 l-55 -27 -50 48
c-27 27 -78 67 -113 90 -104 70 -289 141 -366 141 -34 0 -36 -2 -50 -52 -33
-119 -40 -179 -40 -343 0 -211 24 -317 95 -424 17 -24 28 -49 25 -56 -7 -20
-121 -72 -183 -86 -57 -11 -57 -11 -35 -29 31 -26 28 -28 -20 -19 -69 13 -69
12 -37 -43 45 -77 94 -134 165 -192 l63 -51 -32 -13 c-31 -13 -31 -14 -12 -28
11 -8 45 -26 75 -40 l55 -25 24 -87 c36 -132 89 -237 154 -308 56 -61 56 -61
37 -79 -26 -24 -10 -36 44 -33 l39 2 -1 -104 c-2 -117 19 -196 51 -194 9 1 17
-4 17 -11 0 -32 65 -139 102 -165 42 -31 76 -76 98 -130 23 -58 86 -182 124
-240 l35 -55 -41 -78 c-61 -118 -123 -179 -237 -237 -118 -60 -148 -84 -165
-134 -14 -42 -11 -67 23 -156 35 -90 53 -100 201 -103 71 -2 132 34 234 140
49 51 93 93 97 93 4 0 5 -17 2 -38 -6 -45 15 -94 50 -116 12 -7 72 -19 133
-26 132 -15 163 -8 217 48 86 88 89 191 11 362 l-36 78 39 36 c49 45 74 45
170 1 42 -19 78 -35 80 -35 2 0 -1 9 -7 21 -7 11 -9 23 -7 26 3 2 41 -1 85 -8
l80 -12 6 -36 c9 -56 7 -115 -5 -150 -9 -27 -15 -32 -33 -26 -11 3 -43 8 -71
11 -58 7 -92 -13 -119 -70 -30 -63 -16 -179 27 -214 17 -14 101 -25 181 -23
67 2 164 50 229 114 101 100 257 342 257 400 0 15 4 27 8 27 20 0 113 -71 183
-140 59 -58 80 -85 89 -119 10 -40 10 -45 -11 -67 -12 -13 -37 -28 -56 -35
-43 -14 -63 -53 -63 -121 0 -78 24 -110 102 -138 34 -13 81 -22 103 -22 22 0
65 1 96 1 142 1 198 122 199 424 0 116 -2 130 -21 150 -63 67 -84 164 -75 355
6 111 12 152 28 189 26 59 20 129 -16 201 -14 28 -26 53 -26 56 0 3 13 6 30 8
l29 3 -38 50 c-21 28 -59 89 -85 138 l-46 87 62 0 c35 0 103 -7 152 -16 48 -8
90 -13 92 -11 2 2 -5 15 -16 30 -23 29 -25 37 -7 37 6 0 39 13 72 28 58 28
111 77 148 138 9 16 33 51 52 78 43 59 67 138 63 203 -2 36 -7 47 -18 46 -12
-2 -15 12 -16 80 -1 182 -93 344 -236 418 -40 20 -78 25 -78 9 0 -6 -10 -6
-27 1 -16 6 -78 19 -139 29 -94 15 -134 28 -218 68 -12 6 2 -65 19 -99 8 -15
55 -69 104 -122 49 -52 102 -119 118 -149 25 -47 28 -63 28 -143 -1 -77 -5
-97 -27 -140 -33 -64 -81 -108 -193 -183 -49 -33 -104 -74 -122 -91 l-32 -32
-38 19 c-74 37 -134 47 -268 46 -89 0 -168 -8 -250 -23 -66 -12 -172 -25 -236
-28 l-116 -6 -44 40 c-24 22 -61 52 -81 67 -21 16 -38 33 -38 38 0 5 21 -9 48
-30 69 -58 108 -75 189 -80 l71 -5 50 47 c50 47 108 144 132 221 18 58 18 58
56 36 42 -25 43 -19 3 17 -29 26 -30 29 -20 72 6 25 11 62 11 83 0 47 14 53
79 34 68 -20 55 -2 -14 19 l-55 18 0 63 c0 69 0 68 62 54 52 -12 38 4 -17 20
-52 15 -57 34 -20 69 29 27 26 35 -14 43 -25 5 -31 13 -36 41 -4 19 -4 39 0
45 3 6 -1 11 -9 11 -8 0 -24 19 -34 43 -38 84 -89 101 -161 54 -22 -15 -42
-23 -45 -18 -3 5 3 28 13 52 11 24 27 82 37 129 31 157 2 497 -48 558 -43 51
-332 -67 -492 -202 -59 -50 -62 -52 -102 -44 -33 7 -50 19 -78 55 -36 46 -42
71 -11 39 29 -28 75 -47 108 -44 49 5 70 52 63 148 -5 88 -18 135 -49 181 -26
39 -58 47 -92 25 -31 -20 -35 -20 -35 2 0 10 -6 42 -14 72 -17 64 -11 80 42
127 l36 31 -40 11 c-46 13 -57 13 -104 -1z m110 -14 c0 -3 -12 -15 -26 -27
-31 -24 -64 -91 -63 -127 0 -14 3 -18 6 -10 14 44 16 45 23 20 12 -39 10 -141
-3 -179 -19 -54 -37 -51 -37 6 0 26 -5 55 -11 63 -7 11 -8 5 -3 -22 8 -51 -2
-78 -31 -78 -16 0 -27 8 -34 28 l-11 27 4 -32 c7 -46 -17 -63 -44 -32 -35 40
-50 85 -50 147 0 69 23 142 52 168 l21 19 -7 -50 -7 -50 23 45 c28 54 90 90
155 90 24 0 43 -3 43 -6z m88 -275 c40 -81 50 -214 20 -271 -25 -50 -148 12
-148 74 0 21 8 33 33 48 20 13 26 20 15 20 -9 0 -20 -4 -23 -10 -11 -17 -24
-11 -40 19 -9 18 -11 32 -5 36 5 3 14 23 20 45 11 42 62 93 89 88 9 -2 26 -24
39 -49z m-447 -10 c51 -25 126 -93 145 -131 l15 -28 -53 -1 -53 -2 47 -6 c26
-4 50 -10 54 -13 9 -9 -13 -69 -35 -95 -26 -31 -82 -63 -112 -63 -32 0 -64 33
-83 87 -16 46 -18 72 -17 191 1 81 1 82 26 82 14 0 44 -9 66 -21z m285 -110
c29 -32 26 -105 -5 -130 -22 -18 -74 -25 -103 -14 -19 8 -17 143 2 155 28 18
86 11 106 -11z m727 -33 c55 -116 63 -428 16 -575 -14 -41 -29 -76 -35 -78 -6
-2 -21 18 -34 43 -18 37 -20 51 -12 63 92 128 116 325 63 494 -20 62 -24 67
-44 61 -85 -25 -187 -125 -243 -240 -21 -41 -40 -73 -43 -71 -37 21 -163 77
-172 77 -38 0 124 127 226 177 83 42 137 59 256 82 3 1 13 -15 22 -33z m-8
-97 c33 -141 11 -311 -51 -403 l-27 -39 -31 39 c-38 49 -123 135 -156 158
l-25 17 32 29 c18 16 51 34 75 41 70 19 76 21 55 26 -23 6 -85 -15 -120 -39
-16 -11 -30 -18 -33 -15 -9 8 42 100 69 125 14 13 54 34 89 47 36 14 53 24 40
24 -12 1 -39 -6 -59 -14 -49 -21 -51 -19 -17 16 16 17 51 42 79 55 58 27 57
28 80 -67z m-1512 65 c125 -32 272 -116 383 -216 l55 -51 80 42 c44 24 86 40
94 37 17 -6 40 25 51 67 4 19 11 26 21 23 8 -3 19 -6 25 -6 6 0 8 -13 4 -32
-4 -24 -3 -29 4 -18 5 8 10 22 10 31 0 27 37 30 54 5 16 -21 16 -21 10 7 -9
39 5 34 53 -21 37 -43 49 -51 110 -65 126 -31 289 -125 367 -211 53 -59 87
-108 121 -168 77 -142 173 -216 263 -204 l47 6 -33 -30 c-18 -17 -40 -30 -50
-30 -15 0 -15 -2 -2 -10 8 -5 43 -10 78 -10 34 0 62 -3 62 -7 -1 -5 -11 -20
-23 -35 -21 -26 -27 -28 -132 -32 -121 -5 -211 -22 -323 -62 l-73 -26 -23 25
c-29 31 -84 47 -156 46 l-55 -1 64 -10 c93 -13 129 -31 146 -72 29 -69 13
-147 -39 -195 -22 -21 -31 -23 -54 -15 -43 15 -39 44 12 86 55 46 75 97 53
132 -14 20 -21 22 -74 18 -78 -6 -113 -25 -113 -60 0 -15 7 -38 16 -50 22 -31
0 -27 -26 5 -47 60 2 112 110 114 48 1 51 2 25 10 -40 12 -99 1 -138 -26 -26
-17 -32 -28 -30 -54 1 -40 42 -86 90 -103 25 -9 33 -18 31 -32 -8 -55 -134
-85 -195 -47 -36 23 -43 41 -15 41 9 0 24 5 32 11 11 8 3 9 -31 5 -38 -4 -50
-2 -65 15 -26 29 -3 41 60 33 57 -7 57 10 0 20 -26 5 -34 11 -30 22 3 9 6 20
6 26 0 10 27 6 64 -8 9 -3 16 -2 16 4 0 6 -16 16 -36 22 -24 8 -34 17 -30 26
3 8 1 14 -3 14 -5 0 -11 -5 -13 -12 -3 -9 -26 -7 -89 6 -99 21 -341 32 -425
20 -49 -7 -26 -9 141 -15 175 -6 335 -25 353 -43 2 -3 2 -17 -2 -31 -6 -25 -7
-25 -120 -25 -192 0 -414 -49 -541 -119 -22 -12 -31 -19 -20 -16 11 4 65 22
121 40 151 50 235 66 384 72 l135 5 -22 -24 c-13 -13 -23 -30 -23 -37 0 -7 9
-3 19 10 19 23 21 23 37 7 10 -10 16 -19 13 -22 -2 -2 -51 -22 -109 -45 -131
-51 -253 -119 -316 -177 l-49 -45 75 49 c116 76 241 141 331 171 l83 28 44
-33 c24 -19 53 -34 65 -35 52 -3 85 4 122 25 38 21 42 22 68 7 24 -14 30 -14
54 -1 25 14 66 64 75 91 2 7 24 7 68 -1 91 -16 193 -41 203 -50 9 -8 -140
-156 -220 -217 -125 -95 -332 -173 -498 -188 -152 -14 -338 30 -525 124 -195
98 -393 201 -399 207 -3 4 18 4 47 2 29 -3 50 -2 45 2 -4 3 -37 27 -73 52 -65
46 -167 146 -208 204 l-21 31 100 6 c106 5 162 26 78 28 -24 1 -57 4 -74 8
l-30 7 40 8 c65 13 154 66 221 133 89 89 255 343 224 343 -5 0 -10 20 -10 45
0 59 -40 183 -80 244 -17 28 -50 66 -72 87 -46 41 -146 91 -158 78 -36 -38
-53 -339 -26 -475 21 -108 59 -184 113 -225 l41 -32 -39 -38 c-38 -37 -39 -37
-54 -18 -30 37 -55 93 -77 171 -21 70 -23 99 -23 293 0 207 4 244 35 326 11
29 30 30 113 8z m-30 -38 c18 -7 49 -27 70 -44 37 -30 100 -102 94 -108 -1 -2
-29 10 -61 26 -32 17 -66 30 -75 30 -9 0 4 -9 28 -20 82 -37 138 -86 155 -135
8 -25 13 -45 11 -45 -1 0 -27 11 -57 25 -29 14 -66 25 -83 24 -24 0 -20 -3 25
-18 115 -37 130 -53 130 -139 0 -67 -1 -69 -70 -175 l-71 -107 -27 14 c-94 49
-143 188 -145 411 -1 132 17 275 34 275 5 0 24 -6 42 -14z m1711 -621 c13 -14
30 -39 36 -56 16 -37 4 -49 -51 -49 -26 0 -46 9 -78 36 -46 40 -44 55 14 80
43 19 53 17 79 -11z m810 -120 c20 -9 83 -22 139 -31 124 -18 162 -29 205 -61
33 -25 41 -18 21 19 -10 19 -9 19 31 -3 58 -33 127 -112 161 -184 56 -119 61
-242 15 -356 -13 -32 -21 -59 -17 -59 10 0 55 50 69 75 10 17 11 15 11 -20 -1
-100 -83 -216 -215 -302 -16 -11 -15 -11 9 -3 16 6 38 15 49 21 21 11 21 11
-1 -19 -27 -38 -128 -90 -192 -98 -50 -7 -68 -24 -26 -24 13 0 32 -9 43 -21
18 -20 18 -20 -6 -15 -94 22 -124 26 -196 26 -60 0 -85 4 -94 15 -25 30 -30
14 -6 -18 13 -17 46 -70 72 -117 25 -47 60 -102 76 -122 33 -42 25 -50 -16
-17 -14 11 -26 19 -26 16 0 -2 16 -40 37 -83 29 -63 37 -94 40 -154 3 -54 2
-71 -6 -60 -6 8 -11 29 -11 45 0 17 -4 36 -9 43 -4 7 -9 -102 -10 -245 -2
-286 4 -325 59 -401 26 -36 27 -42 14 -50 -15 -8 -15 -10 0 -15 10 -4 15 -3
11 3 -3 6 -1 10 4 10 20 0 11 -39 -9 -45 -20 -6 -19 -25 1 -25 6 0 7 5 4 10
-3 6 -1 10 4 10 6 0 11 -9 11 -21 0 -11 -4 -18 -8 -15 -5 3 -9 -1 -9 -9 0 -8
5 -11 10 -8 6 3 7 -28 2 -83 -18 -230 -63 -314 -168 -314 -53 0 -77 24 -77 75
0 37 34 95 61 102 10 3 19 9 19 14 0 20 -61 -16 -81 -47 -21 -35 -23 -95 -5
-136 7 -15 3 -18 -24 -18 -63 0 -100 45 -100 120 0 51 12 75 48 94 19 11 22
15 10 16 -10 0 -32 -12 -48 -27 -40 -35 -50 -95 -25 -142 16 -31 16 -33 -1
-29 -30 5 -64 66 -64 113 0 52 19 77 85 113 50 27 50 28 50 78 -1 64 -38 118
-138 200 -40 32 -96 81 -124 108 -49 46 -74 55 -36 14 9 -10 11 -18 6 -18 -20
0 -76 73 -103 135 -15 33 -32 71 -39 85 -11 25 -11 25 -6 -4 5 -24 3 -28 -12
-21 -10 3 -34 9 -53 12 -19 2 -49 12 -67 21 -28 14 -43 15 -115 4 -46 -7 -94
-15 -108 -19 l-25 -6 20 23 20 23 -30 -7 c-106 -24 -214 -39 -238 -32 -28 7
-28 7 -23 69 l6 62 -15 -45 c-9 -25 -18 -88 -22 -140 -5 -92 -7 -96 -42 -134
-20 -21 -112 -100 -206 -176 -175 -142 -304 -257 -388 -347 -27 -29 -72 -64
-100 -78 -54 -27 -125 -33 -145 -13 -20 20 -14 73 13 112 28 42 20 48 -16 10
-18 -19 -24 -38 -25 -77 -2 -60 -16 -69 -56 -37 -52 41 -48 118 11 183 l36 41
-35 -20 c-19 -11 -42 -34 -51 -52 -18 -36 -29 -32 -29 10 0 64 37 103 152 159
148 73 216 153 341 405 71 142 79 178 92 409 9 140 31 258 67 343 46 110 138
243 230 332 93 90 76 91 176 -5 l53 -50 107 -3 c81 -3 143 3 256 22 227 40
366 35 525 -16 59 -19 64 -19 73 -4 5 9 67 55 138 101 139 92 170 122 209 205
22 47 26 69 26 146 -1 82 -4 97 -33 157 -22 45 -62 97 -126 164 -81 85 -126
143 -113 143 3 0 21 -7 41 -15z m-764 -174 c0 -5 -9 -16 -21 -27 -12 -10 -30
-31 -40 -46 l-20 -27 34 6 c20 3 37 1 41 -6 4 -6 4 -11 -1 -11 -4 -1 -109 -1
-233 -3 -192 -1 -225 1 -228 13 -3 15 94 57 187 80 88 23 281 37 281 21z m50
-61 c0 -45 -4 -62 -15 -67 -21 -7 -32 4 -17 19 19 19 14 28 -13 28 -14 0 -25
3 -25 6 0 9 54 72 63 73 4 1 7 -26 7 -59z m-587 -23 c9 -24 -30 -95 -60 -110
-34 -18 -56 -9 -78 33 -18 35 -19 62 -3 78 17 17 134 16 141 -1z m479 -53 c3
-3 -19 -28 -49 -56 l-54 -52 -87 22 c-48 12 -114 26 -146 32 -33 5 -61 12 -64
15 -13 13 11 34 45 38 61 6 349 8 355 1z m97 -21 c5 -4 -17 -155 -24 -161 -2
-3 -39 11 -81 29 l-76 34 63 57 c52 48 67 56 88 51 15 -3 28 -7 30 -10z m-109
-149 c44 -20 80 -38 80 -40 0 -2 -11 -34 -25 -70 -35 -94 -79 -166 -125 -208
-34 -31 -47 -36 -88 -36 -70 0 -135 26 -188 74 l-46 41 43 31 c24 18 94 79
154 137 61 59 111 106 113 107 1 0 39 -16 82 -36z m-1347 -317 c50 -78 46
-109 -24 -181 l-50 -51 -53 58 c-63 68 -116 163 -145 263 -34 115 -37 114 107
38 120 -64 129 -70 165 -127z m877 35 c0 -14 -124 -80 -185 -98 -33 -10 -64
-21 -70 -26 -12 -11 54 2 80 15 18 9 19 9 6 -6 -7 -10 -19 -17 -27 -17 -7 0
-16 -4 -19 -10 -9 -15 45 8 80 34 45 33 126 78 131 73 3 -2 -17 -23 -45 -46
-193 -162 -441 -212 -628 -127 -48 23 -153 115 -153 136 0 4 35 -10 78 -31 89
-46 156 -62 146 -35 -4 9 -19 23 -35 31 -41 21 -49 18 -14 -5 51 -34 4 -22
-81 19 -77 39 -139 80 -119 81 6 0 21 -6 35 -13 24 -12 40 -17 160 -53 85 -25
297 -30 395 -10 79 16 231 69 250 87 11 11 15 11 15 1z m-781 -160 c96 -93
276 -136 418 -100 45 11 47 10 70 -18 34 -43 29 -57 -12 -33 -41 24 -42 22
-14 -33 27 -52 27 -86 1 -180 -13 -46 -27 -152 -37 -270 -17 -208 -20 -228
-42 -271 l-14 -28 -58 46 c-99 76 -194 195 -252 319 -27 56 -29 58 -24 23 3
-21 9 -46 11 -55 3 -9 -6 -3 -20 13 -34 39 -63 118 -74 197 l-9 63 -7 -40
c-13 -69 -18 -73 -33 -25 -17 55 -14 233 5 252 7 7 12 19 12 27 0 11 -6 9 -22
-7 -22 -20 -78 -40 -78 -28 0 3 22 26 49 51 27 26 58 66 68 91 10 24 19 44 20
44 2 0 20 -17 42 -38z m586 -97 c-30 -42 -55 -73 -55 -67 0 5 -11 25 -24 44
l-23 35 46 17 c25 9 59 25 76 36 16 10 31 18 33 16 1 -2 -22 -38 -53 -81z
m-75 -121 c0 -20 -17 -17 -23 4 -2 9 -8 26 -12 37 -6 17 -4 17 14 -4 12 -13
21 -29 21 -37z m-188 -703 l35 -25 -20 -48 c-11 -26 -23 -48 -26 -48 -9 0 -81
120 -121 200 l-33 65 65 -60 c35 -33 80 -71 100 -84z m828 -31 l-35 -29 110
24 c113 25 197 32 180 16 -6 -5 -19 -11 -30 -14 -11 -3 14 -5 56 -6 108 -1
137 -14 160 -69 11 -25 18 -46 16 -48 -2 -2 -28 -13 -58 -23 -47 -17 -50 -20
-24 -21 l30 -1 -30 -16 c-22 -12 -67 -18 -165 -22 -83 -3 -124 -7 -105 -12 25
-5 20 -7 -23 -8 -45 -1 -102 8 -232 35 -25 5 -24 4 5 -20 17 -14 25 -25 18
-26 -6 0 -14 4 -18 9 -3 5 -28 17 -55 26 -55 18 -56 21 -35 49 10 13 15 43 15
85 l0 66 78 1 c42 1 95 8 117 17 59 22 64 20 25 -13z m498 -169 c38 -52 38
-75 -1 -154 -43 -86 -168 -255 -234 -316 -95 -87 -227 -125 -302 -86 -33 17
-41 33 -41 85 0 52 27 83 72 84 45 1 39 16 -7 16 -65 0 -109 -96 -74 -162 16
-29 0 -37 -21 -10 -42 51 -33 170 17 219 22 23 29 25 76 18 100 -14 100 -14
115 30 8 24 12 69 10 111 l-3 72 55 15 c30 9 84 19 120 22 75 8 150 37 150 59
0 12 10 19 41 25 3 0 15 -12 27 -28z m-839 -217 c39 -90 53 -202 31 -254 -17
-41 -81 -97 -126 -109 -44 -12 -96 5 -113 37 -28 52 1 129 51 139 23 5 27 8
15 15 -24 13 -64 -8 -82 -43 -17 -32 -17 -95 -1 -132 12 -27 -30 -22 -59 7
-35 35 -42 87 -18 135 18 37 18 39 3 31 -19 -10 -40 -60 -40 -94 0 -12 7 -34
15 -50 19 -37 15 -41 -17 -16 -30 23 -40 62 -28 115 12 55 47 85 116 100 53
12 55 13 22 14 -21 1 -38 4 -38 9 1 12 214 181 225 178 6 -1 25 -38 44 -82z"/>
<path d="M1565 3160 c-4 -6 14 -10 47 -10 59 0 78 -10 147 -74 41 -37 43 -38
26 -11 -26 43 -56 75 -87 91 -31 16 -124 19 -133 4z"/>
<path d="M919 3117 c-52 -19 -94 -52 -118 -91 -29 -47 -26 -48 15 -9 20 18 59
46 88 61 42 22 63 26 124 26 51 -1 70 2 63 9 -17 17 -131 19 -172 4z"/>
<path d="M1763 2980 c-8 -42 -23 -48 -23 -9 0 18 -3 29 -7 25 -5 -4 -8 -13 -8
-19 0 -7 -13 -13 -30 -15 -45 -4 -85 -22 -96 -44 -10 -19 -9 -19 18 1 31 23
100 41 90 24 -4 -6 -19 -14 -34 -18 -81 -20 -138 -109 -131 -202 6 -68 23 -86
81 -86 105 2 179 90 165 195 -3 18 -8 40 -12 48 -4 11 2 19 23 26 29 11 62 54
41 54 -5 0 -10 -4 -10 -9 0 -5 -7 -11 -15 -15 -13 -4 -13 -2 -5 14 5 10 10 25
10 32 -1 7 -8 1 -16 -14 -20 -38 -31 -35 -26 7 5 43 -6 47 -15 5z m-9 -102
c40 -57 3 -174 -66 -209 -71 -36 -128 -18 -128 42 0 28 1 29 16 15 40 -41 106
-27 133 28 19 39 4 85 -37 112 -36 25 -29 32 30 33 27 1 41 -5 52 -21z"/>
<path d="M820 2921 c0 -6 9 -20 20 -31 18 -18 19 -20 2 -20 -10 0 -28 7 -41
17 -18 12 -23 13 -19 2 2 -8 23 -24 46 -36 24 -12 38 -24 32 -28 -14 -9 -13
-70 4 -108 29 -69 97 -115 181 -124 96 -10 135 12 135 78 0 42 -36 123 -67
151 -10 10 -43 28 -73 42 -42 19 -49 25 -30 25 31 1 107 -33 140 -62 l24 -22
-15 25 c-34 53 -111 85 -176 74 -25 -5 -34 -2 -39 10 -3 9 -10 16 -15 16 -6 0
-5 -9 1 -21 17 -31 6 -33 -29 -4 -17 15 -31 22 -31 16 0 -5 5 -13 10 -16 6 -3
10 -11 10 -16 0 -12 -31 4 -54 27 -9 8 -16 11 -16 5z m116 -93 c-27 -38 -20
-95 13 -129 52 -52 134 -30 164 44 l13 31 17 -36 c21 -44 22 -101 2 -118 -22
-18 -119 -14 -169 8 -53 24 -96 78 -103 131 -7 51 16 91 53 91 24 0 24 -1 10
-22z"/>
<path d="M1530 2229 c-19 -16 -57 -38 -85 -49 -37 -14 -43 -19 -25 -19 35 -1
100 31 129 63 34 37 23 40 -19 5z"/>
</g>
</svg>
