<?xml version="1.0" standalone="no"?>
<!DOCTYPE svg PUBLIC "-//W3C//DTD SVG 20010904//EN"
 "http://www.w3.org/TR/2001/REC-SVG-20010904/DTD/svg10.dtd">
<svg version="1.0" xmlns="http://www.w3.org/2000/svg"
 width="360.000000pt" height="360.000000pt" viewBox="0 0 360.000000 360.000000"
 preserveAspectRatio="xMidYMid meet">

<g transform="translate(0.000000,360.000000) scale(0.100000,-0.100000)"
fill="#000000" stroke="none">
<path d="M1056 3590 c-76 -23 -145 -97 -208 -225 -49 -98 -60 -138 -60 -211 1
-72 32 -155 76 -199 32 -32 51 -32 86 3 22 22 30 41 35 88 4 32 9 66 11 75 9
32 55 67 96 74 33 6 44 3 61 -13 l20 -21 -61 -65 c-33 -36 -72 -85 -86 -109
-21 -35 -35 -47 -69 -57 -101 -30 -192 -105 -230 -188 -36 -81 -21 -274 30
-362 l14 -25 -6 25 c-25 108 -12 245 27 287 41 44 68 29 161 -89 39 -49 114
-93 177 -104 26 -4 31 -3 20 5 -12 9 -12 11 2 16 37 14 149 -37 214 -97 54
-50 70 -45 19 6 -40 41 -131 96 -157 96 -24 0 -23 1 19 46 88 93 160 241 188
384 9 47 21 95 27 107 6 12 7 36 4 55 -4 18 -11 62 -15 97 -5 35 -14 67 -21
71 -22 14 45 28 196 40 88 7 115 6 138 -6 16 -8 31 -12 33 -10 5 5 -76 70
-112 89 -23 12 -25 16 -11 17 30 0 96 -44 150 -100 26 -28 50 -49 52 -47 8 7
-25 99 -42 118 -9 11 -15 21 -12 24 8 8 138 -125 186 -190 50 -68 101 -166
126 -241 l16 -50 74 -18 c108 -25 263 -105 335 -172 185 -171 195 -472 23
-708 -64 -88 -167 -133 -192 -85 -7 11 -9 23 -7 26 3 2 8 -5 12 -16 4 -14 15
-21 31 -21 23 0 24 1 9 23 -12 19 -15 54 -13 178 2 175 -11 234 -65 304 -35
45 -44 53 -166 145 -98 74 -135 122 -126 160 l7 25 -26 -24 c-14 -13 -23 -28
-20 -32 3 -5 1 -9 -5 -9 -15 0 -41 -97 -41 -155 0 -41 6 -60 33 -99 102 -151
103 -154 110 -298 1 -37 0 -65 -4 -62 -4 2 -7 -9 -7 -26 2 -51 -43 -104 -119
-142 l-68 -33 -150 2 c-82 1 -188 3 -235 4 -69 2 -101 -3 -166 -24 l-81 -27
-27 -90 c-16 -49 -31 -90 -35 -90 -3 0 -34 7 -69 15 -80 19 -133 46 -166 86
l-27 32 23 24 c13 14 28 21 38 18 8 -4 3 6 -11 22 -14 15 -33 39 -42 52 l-16
24 -19 -33 c-26 -42 -36 -141 -21 -210 16 -75 15 -93 -16 -190 -34 -110 -37
-236 -6 -324 17 -48 21 -83 21 -185 0 -200 -31 -364 -91 -482 -15 -31 -25 -59
-22 -63 10 -10 25 -7 18 4 -4 6 -2 17 4 24 22 26 71 177 86 263 8 47 15 146
15 222 0 91 3 131 10 121 15 -24 12 -284 -5 -390 -9 -52 -28 -132 -44 -178
l-28 -84 34 -15 c41 -17 124 -33 135 -27 5 3 8 0 8 -5 0 -6 -3 -11 -7 -11 -5
0 -17 -13 -28 -28 -18 -25 -16 -25 18 6 29 24 47 32 77 32 30 0 38 3 34 14 -3
8 2 29 12 48 10 18 35 80 56 138 l38 105 -6 -65 c-6 -64 -26 -168 -39 -203 -7
-15 -4 -16 21 -6 16 6 46 8 67 5 l38 -6 28 62 c46 101 56 165 55 353 -1 150
-5 182 -28 275 -27 106 -46 310 -33 362 6 23 13 26 69 32 144 16 299 72 370
135 l37 32 22 -43 c60 -119 129 -195 278 -306 128 -96 278 -236 350 -326 58
-73 113 -170 142 -252 28 -79 31 -217 5 -293 -18 -53 -82 -171 -92 -171 -3 0
6 19 20 43 l25 42 -82 0 -82 0 72 -72 c81 -82 95 -112 67 -146 l-19 -22 22 19
c28 24 29 46 2 80 l-20 26 33 53 33 54 90 -5 c192 -10 303 63 370 243 28 75
29 75 15 75 -5 0 -10 -7 -10 -15 0 -8 -5 -15 -11 -15 -6 0 -8 7 -5 16 3 8 0
36 -6 62 l-13 47 -6 -40 c-4 -32 -7 -36 -13 -20 -24 62 -39 93 -58 115 l-20
25 18 -30 c33 -55 16 -195 -32 -266 -40 -58 -96 -83 -185 -84 l-76 0 -15 -42
-15 -42 31 -4 c28 -3 27 -4 -8 -5 -33 -2 -37 0 -31 16 18 40 35 119 35 158 0
38 5 46 49 83 40 34 51 50 61 91 7 27 10 55 7 62 -3 8 -6 6 -6 -4 -2 -39 -21
-14 -70 92 -9 20 -10 4 -6 -78 6 -97 -5 -172 -23 -172 -4 0 -15 34 -24 75 -20
90 -72 196 -139 286 -65 88 -230 246 -354 339 -55 41 -120 93 -144 115 -48 44
-117 137 -150 202 l-21 41 21 47 c11 26 23 70 26 99 l5 53 47 12 c69 17 148
66 176 109 43 66 58 151 51 287 -4 66 -10 130 -13 143 -9 38 16 25 81 -41 36
-37 75 -91 96 -131 32 -63 34 -77 40 -188 5 -112 7 -121 30 -140 87 -70 262
121 315 345 73 308 -104 555 -470 655 l-69 19 -32 79 c-48 121 -107 214 -200
309 -61 63 -175 158 -181 151 -3 -2 6 -20 20 -38 14 -18 29 -45 32 -61 l7 -27
-51 34 c-49 34 -118 53 -157 44 -15 -3 -11 -8 16 -20 42 -18 75 -52 65 -68 -3
-5 -9 -8 -13 -6 -8 4 -160 -9 -212 -19 l-36 -6 -43 86 c-86 174 -203 251 -325
215z m155 -31 c49 -24 114 -104 160 -196 l38 -76 -79 -33 c-43 -17 -93 -42
-109 -54 l-31 -21 -40 32 c-22 18 -40 34 -40 37 0 5 23 -12 56 -41 21 -18 22
-18 59 7 21 14 42 26 46 26 17 0 8 26 -26 77 -27 40 -48 58 -97 82 -68 34
-145 48 -202 37 -32 -6 -40 -14 -71 -74 -19 -37 -34 -64 -35 -59 0 4 16 40 36
80 60 118 114 172 193 193 52 14 90 9 142 -17z m-291 -233 c0 -2 -16 -14 -36
-27 -20 -12 -45 -36 -56 -53 -17 -27 -19 -28 -13 -6 8 28 24 59 25 47 0 -4 17
4 37 18 39 26 43 28 43 21z m137 -41 c23 -14 43 -28 43 -31 0 -4 -83 40 -99
53 -18 13 21 -2 56 -22z m-52 -6 c17 -5 41 -18 55 -29 l25 -20 -26 0 c-28 0
-72 -41 -87 -80 -5 -14 -13 -50 -17 -80 -9 -67 -20 -90 -44 -90 -61 0 -112
166 -74 240 36 69 86 86 168 59z m365 -39 c-8 -5 -19 -10 -25 -10 -5 0 -3 5 5
10 8 5 20 10 25 10 6 0 3 -5 -5 -10z m-120 -58 c-74 -52 -156 -136 -200 -207
-12 -19 -24 -35 -26 -35 -14 0 62 104 113 156 48 47 120 104 132 103 3 0 -5
-8 -19 -17z m171 -13 l24 -21 -25 16 c-79 51 -226 -29 -294 -159 -9 -17 -16
-24 -16 -17 0 39 100 150 164 182 54 26 117 26 147 -1z m-53 -115 c12 -8 35
-22 50 -30 16 -8 21 -14 11 -14 -9 0 -28 9 -42 20 -53 42 -121 35 -204 -21
-52 -36 -69 -38 -22 -3 79 61 162 80 207 48z m-323 -144 c15 -17 16 -24 7 -45
-16 -34 -49 -45 -139 -45 -87 0 -122 -16 -149 -66 -10 -18 -20 -31 -22 -29 -9
9 44 86 82 117 49 41 77 57 131 74 56 18 69 17 90 -6z m232 -51 c89 -84 2
-309 -136 -350 -126 -38 -176 106 -89 259 33 59 76 96 128 110 46 12 68 7 97
-19z m-540 -171 c-3 -8 -6 -5 -6 6 -1 11 2 17 5 13 3 -3 4 -12 1 -19z m-4
-103 c3 -47 2 -68 -3 -50 -8 30 -13 142 -6 134 2 -2 6 -40 9 -84z m1284 8 c-2
-16 -4 -5 -4 22 0 28 2 40 4 28 2 -13 2 -35 0 -50z m30 10 c-3 -10 -5 -2 -5
17 0 19 2 27 5 18 2 -10 2 -26 0 -35z m106 -147 c64 -60 66 -63 17 -25 -71 57
-119 115 -119 144 0 6 7 -3 15 -20 8 -16 48 -61 87 -99z m-84 29 c15 -19 15
-19 -2 -6 -18 15 -47 63 -47 78 1 4 8 -5 17 -22 8 -16 23 -39 32 -50z m42 -42
c13 -16 12 -17 -3 -4 -10 7 -18 15 -18 17 0 8 8 3 21 -13z m17 -89 l-3 -39 -5
47 c-3 26 -1 43 3 39 5 -5 7 -26 5 -47z m201 -88 c17 -28 31 -54 31 -60 0 -5
-16 17 -36 50 -19 32 -44 68 -55 80 -10 11 -19 24 -19 28 0 12 44 -43 79 -98z
m-191 -82 l-3 -89 -5 97 c-3 53 -1 94 3 89 4 -4 6 -48 5 -97z m239 -46 c-3 -8
-6 -5 -6 6 -1 11 2 17 5 13 3 -3 4 -12 1 -19z m10 -110 c-2 -18 -4 -6 -4 27 0
33 2 48 4 33 2 -15 2 -42 0 -60z m-1435 -200 c-11 -112 110 -188 331 -208
l102 -9 -100 4 c-151 6 -287 56 -330 122 -18 27 -25 99 -11 121 11 18 12 15 8
-30z m601 25 c-7 -2 -19 -2 -25 0 -7 3 -2 5 12 5 14 0 19 -2 13 -5z m70 -10
c-7 -2 -19 -2 -25 0 -7 3 -2 5 12 5 14 0 19 -2 13 -5z m85 -10 c-10 -2 -26 -2
-35 0 -10 3 -2 5 17 5 19 0 27 -2 18 -5z m50 -18 c-3 -3 -9 2 -12 12 -6 14 -5
15 5 6 7 -7 10 -15 7 -18z m42 5 c-12 -22 -30 -18 -30 6 0 8 9 14 20 14 18 0
19 -3 10 -20z m31 -8 c-18 -33 -92 -91 -156 -123 -70 -34 -203 -70 -254 -68
-25 1 -16 4 29 11 79 11 198 50 256 84 24 14 63 48 87 74 43 49 57 57 38 22z
m-67 -23 c13 -12 -97 -78 -177 -105 -93 -32 -327 -58 -327 -36 0 4 39 8 87 9
48 1 92 4 99 7 6 2 24 36 39 75 l28 70 121 -6 c66 -3 125 -9 130 -14z m-480
-93 c-3 -15 -8 -25 -11 -23 -2 3 -1 17 3 31 3 15 8 25 11 23 2 -3 1 -17 -3
-31z m-274 -156 c28 -23 33 -31 23 -41 -7 -7 -13 -21 -13 -31 0 -10 -8 -21
-17 -25 -10 -3 -26 -13 -35 -21 -15 -13 -18 -13 -19 -1 0 8 -6 -8 -13 -36 -16
-59 -27 -203 -15 -184 7 11 9 9 9 -5 0 -11 19 -37 42 -59 25 -24 32 -35 18
-27 -13 7 -32 22 -43 34 l-18 21 6 -25 c5 -19 4 -22 -4 -10 -6 8 -8 23 -5 34
4 11 2 16 -4 12 -16 -9 -32 58 -32 130 0 56 24 172 49 237 13 34 27 34 71 -3z
m60 -30 c0 -5 -4 -10 -10 -10 -5 0 -10 5 -10 10 0 6 5 10 10 10 6 0 10 -4 10
-10z m103 -26 c12 -4 16 -11 12 -22 -4 -10 -9 -54 -12 -98 -5 -65 -1 -96 15
-150 12 -38 25 -89 31 -114 16 -71 33 -268 25 -282 -4 -7 -7 -31 -5 -53 2 -22
0 -38 -3 -35 -3 3 -6 26 -7 50 -2 35 -10 55 -38 90 -58 72 -86 112 -116 165
-15 28 -35 56 -43 63 -14 10 -13 12 7 12 116 0 165 218 70 312 -17 17 -29 40
-29 55 0 24 2 25 38 19 20 -4 45 -9 55 -12z m98 -23 c-8 -5 -24 -7 -37 -5 -15
3 -24 -1 -27 -13 -4 -14 -5 -13 -6 5 -1 20 4 22 42 22 28 0 37 -3 28 -9z
m-190 -63 c43 -59 36 -200 -10 -242 -15 -14 -14 -8 6 31 20 39 24 59 21 110
-4 62 -28 114 -56 119 -7 1 -8 0 -2 -3 23 -11 41 -66 41 -126 1 -72 -12 -111
-40 -126 -25 -14 -24 -14 -49 7 -78 68 -39 252 55 261 6 1 22 -13 34 -31z
m116 -25 c-3 -10 -5 -2 -5 17 0 19 2 27 5 18 2 -10 2 -26 0 -35z m-60 -120
c-2 -16 -4 -3 -4 27 0 30 2 43 4 28 2 -16 2 -40 0 -55z m60 20 c-3 -10 -5 -4
-5 12 0 17 2 24 5 18 2 -7 2 -21 0 -30z m31 -103 c0 -8 -6 1 -13 20 -7 19 -13
42 -13 50 0 8 6 -1 13 -20 7 -19 13 -42 13 -50z m9 -42 c-3 -8 -6 -5 -6 6 -1
11 2 17 5 13 3 -3 4 -12 1 -19z m-272 -48 c9 -16 13 -30 11 -30 -3 0 -12 14
-21 30 -9 17 -13 30 -11 30 3 0 12 -13 21 -30z m282 -7 c-3 -10 -5 -4 -5 12 0
17 2 24 5 18 2 -7 2 -21 0 -30z m-202 -13 c3 -5 1 -10 -4 -10 -6 0 -11 5 -11
10 0 6 2 10 4 10 3 0 8 -4 11 -10z m212 -47 c-3 -10 -5 -4 -5 12 0 17 2 24 5
18 2 -7 2 -21 0 -30z m-146 -60 c13 -16 12 -17 -3 -4 -10 7 -18 15 -18 17 0 8
8 3 21 -13z m161 -50 c2 -23 0 -39 -4 -37 -5 3 -7 29 -7 57 1 56 6 48 11 -20z
m-101 -30 c13 -16 12 -17 -3 -4 -10 7 -18 15 -18 17 0 8 8 3 21 -13z m1543
-128 c3 -8 1 -15 -4 -15 -6 0 -10 7 -10 15 0 8 2 15 4 15 2 0 6 -7 10 -15z
m-1447 -92 c-2 -16 -4 -3 -4 27 0 30 2 43 4 28 2 -16 2 -40 0 -55z m-40 45
c-3 -8 -6 -5 -6 6 -1 11 2 17 5 13 3 -3 4 -12 1 -19z m1490 0 c-3 -8 -6 -5 -6
6 -1 11 2 17 5 13 3 -3 4 -12 1 -19z m-1506 -49 c-5 -13 -10 -19 -10 -12 -1
15 10 45 15 40 3 -2 0 -15 -5 -28z m1776 9 c-3 -8 -6 -5 -6 6 -1 11 2 17 5 13
3 -3 4 -12 1 -19z m10 -40 c-3 -8 -6 -5 -6 6 -1 11 2 17 5 13 3 -3 4 -12 1
-19z m-1832 -102 c-30 -76 -76 -169 -61 -126 19 56 92 227 94 221 1 -4 -13
-47 -33 -95z m1858 89 c-3 -9 -8 -14 -10 -11 -3 3 -2 9 2 15 9 16 15 13 8 -4z
m-1766 -42 c-3 -10 -5 -2 -5 17 0 19 2 27 5 18 2 -10 2 -26 0 -35z m1776 -10
c-3 -7 -6 -13 -8 -13 -2 0 -5 6 -8 13 -3 8 1 14 8 14 7 0 11 -6 8 -14z m-1786
-50 c-3 -10 -5 -4 -5 12 0 17 2 24 5 18 2 -7 2 -21 0 -30z m1744 -27 c-56 -81
-148 -138 -220 -135 -17 0 -9 5 24 13 100 26 144 56 191 131 16 24 30 42 32
40 2 -2 -10 -24 -27 -49z m-1754 -18 c-3 -8 -6 -5 -6 6 -1 11 2 17 5 13 3 -3
4 -12 1 -19z m-10 -40 c-3 -8 -6 -5 -6 6 -1 11 2 17 5 13 3 -3 4 -12 1 -19z"/>
<path d="M1132 2840 c-49 -35 -99 -118 -108 -178 -8 -55 10 -118 38 -133 101
-54 238 82 238 236 0 46 -4 60 -25 80 -35 36 -90 34 -143 -5z m132 -12 c21
-34 29 -68 17 -68 -6 0 -11 5 -11 12 0 19 -32 48 -52 48 -21 0 -82 -29 -75
-36 2 -2 20 3 40 11 20 8 42 12 50 9 20 -7 37 -49 36 -87 -1 -27 -2 -28 -7
-10 -17 56 -74 84 -87 43 -3 -11 -15 -20 -25 -20 -24 0 -40 -29 -40 -72 0 -41
24 -78 51 -78 11 0 17 -4 14 -10 -3 -5 -19 -10 -35 -10 -57 0 -77 72 -40 145
11 22 20 44 19 50 0 5 -11 -12 -25 -40 -41 -86 -25 -164 34 -166 25 0 25 -1 7
-10 -14 -7 -30 -7 -48 0 -75 29 -57 172 34 263 41 41 54 48 88 48 31 0 44 -5
55 -22z"/>
<path d="M952 1540 c0 -14 2 -19 5 -12 2 6 2 18 0 25 -3 6 -5 1 -5 -13z"/>
<path d="M1031 1205 c-19 -19 -29 -35 -24 -35 10 0 44 35 57 58 12 20 3 14
-33 -23z"/>
<path d="M1786 2884 c-24 -23 -19 -47 14 -79 42 -40 53 -89 54 -232 1 -68 4
-123 8 -123 14 0 39 47 58 109 24 76 27 215 6 265 -27 64 -103 97 -140 60z"/>
<path d="M1565 2594 c-128 -83 -169 -291 -66 -334 94 -39 225 105 226 248 0
58 -3 66 -28 88 -37 31 -82 31 -132 -2z m120 -9 c24 -23 30 -48 25 -105 -2
-28 -36 -110 -45 -110 -3 0 -1 9 5 19 25 47 5 136 -32 150 -30 11 -45 5 -51
-21 -5 -17 -11 -20 -35 -15 -28 6 -31 3 -51 -43 -23 -54 -28 -127 -8 -153 6
-10 26 -21 42 -26 l30 -9 -28 -1 c-41 -1 -64 14 -77 53 -34 104 79 282 183
285 10 1 29 -10 42 -24z m-155 -104 c-18 -34 -12 -109 10 -131 24 -24 59 -26
86 -5 35 27 39 15 4 -15 -19 -16 -41 -29 -48 -30 -7 0 -11 -4 -8 -8 3 -5 -9
-6 -25 -4 -44 6 -63 41 -56 102 5 45 31 110 43 110 2 0 0 -9 -6 -19z"/>
<path d="M1584 2564 c-19 -15 -19 -16 1 -9 74 27 104 8 107 -64 l1 -46 4 43
c6 59 -16 92 -60 92 -18 0 -42 -7 -53 -16z"/>
<path d="M828 2593 c7 -3 16 -2 19 1 4 3 -2 6 -13 5 -11 0 -14 -3 -6 -6z"/>
<path d="M860 2565 c0 -14 2 -25 4 -25 2 0 6 11 8 25 3 14 1 25 -3 25 -5 0 -9
-11 -9 -25z"/>
<path d="M912 2555 c15 -16 29 -27 31 -24 3 2 -10 15 -27 28 l-31 24 27 -28z"/>
<path d="M853 2455 c0 -38 2 -53 4 -32 2 20 2 52 0 70 -2 17 -4 1 -4 -38z"/>
<path d="M1183 2463 c9 -2 23 -2 30 0 6 3 -1 5 -18 5 -16 0 -22 -2 -12 -5z"/>
<path d="M1270 2435 c25 -13 65 -44 88 -69 23 -25 42 -42 42 -38 0 24 -138
133 -167 132 -4 -1 12 -12 37 -25z"/>
<path d="M1053 2414 c-29 -7 -71 -47 -78 -77 -15 -60 48 -177 110 -203 69 -28
166 -13 218 34 59 55 15 167 -85 216 -53 26 -124 39 -165 30z m135 -76 c26
-13 49 -32 50 -43 7 -36 -127 -4 -180 43 -47 41 50 41 130 0z"/>
<path d="M861 2354 c0 -11 3 -14 6 -6 3 7 2 16 -1 19 -3 4 -6 -2 -5 -13z"/>
<path d="M770 2345 c0 -5 5 -17 10 -25 5 -8 10 -10 10 -5 0 6 -5 17 -10 25 -5
8 -10 11 -10 5z"/>
<path d="M880 2285 c0 -23 62 -113 108 -159 46 -45 49 -51 45 -86 -3 -21 -2
-55 1 -74 7 -39 52 -99 67 -90 5 3 9 1 9 -4 0 -14 54 -26 58 -13 2 5 9 8 16 5
20 -8 76 18 148 68 35 24 72 46 83 50 11 3 -16 6 -60 7 -91 1 -209 30 -270 66
-57 33 -139 121 -174 185 -17 30 -31 51 -31 45z"/>
<path d="M1455 2250 c10 -11 20 -20 23 -20 3 0 -3 9 -13 20 -10 11 -20 20 -23
20 -3 0 3 -9 13 -20z"/>
<path d="M820 2240 c6 -11 13 -20 16 -20 2 0 0 9 -6 20 -6 11 -13 20 -16 20
-2 0 0 -9 6 -20z"/>
<path d="M1504 2216 c11 -9 24 -16 30 -16 12 0 7 5 -24 19 -24 11 -24 11 -6
-3z"/>
<path d="M1624 2183 c8 -9 99 -33 104 -28 4 3 -94 35 -106 35 -3 0 -2 -3 2 -7z"/>
<path d="M860 2176 c0 -2 8 -10 18 -17 15 -13 16 -12 3 4 -13 16 -21 21 -21
13z"/>
<path d="M1753 2136 c10 -8 25 -23 33 -33 14 -17 14 -16 4 4 -6 13 -20 27 -33
33 -20 10 -21 10 -4 -4z"/>
<path d="M890 2136 c0 -2 8 -10 18 -17 15 -13 16 -12 3 4 -13 16 -21 21 -21
13z"/>
<path d="M1680 2130 c35 -24 54 -31 30 -11 -14 11 -29 21 -35 21 -5 0 -3 -5 5
-10z"/>
<path d="M1645 2079 c-52 -40 -57 -46 -17 -23 29 16 73 55 61 53 -2 0 -22 -14
-44 -30z"/>
<path d="M1736 2077 c3 -10 9 -15 12 -12 3 3 0 11 -7 18 -10 9 -11 8 -5 -6z"/>
<path d="M1803 2045 c0 -22 2 -30 4 -17 2 12 2 30 0 40 -3 9 -5 -1 -4 -23z"/>
<path d="M941 2034 c0 -11 3 -14 6 -6 3 7 2 16 -1 19 -3 4 -6 -2 -5 -13z"/>
<path d="M1540 2020 c-8 -5 -10 -10 -5 -10 6 0 17 5 25 10 8 5 11 10 5 10 -5
0 -17 -5 -25 -10z"/>
<path d="M952 1985 c0 -16 2 -22 5 -12 2 9 2 23 0 30 -3 6 -5 -1 -5 -18z"/>
<path d="M1458 1993 c7 -3 16 -2 19 1 4 3 -2 6 -13 5 -11 0 -14 -3 -6 -6z"/>
<path d="M1780 1980 c-6 -11 -29 -34 -52 -50 -23 -17 -37 -30 -32 -30 14 0 83
59 94 81 6 10 8 19 6 19 -3 0 -10 -9 -16 -20z"/>
<path d="M1640 1890 c-21 -7 -21 -8 -5 -9 11 0 27 4 35 9 18 11 5 11 -30 0z"/>
<path d="M1198 1783 c7 -3 16 -2 19 1 4 3 -2 6 -13 5 -11 0 -14 -3 -6 -6z"/>
<path d="M1123 1773 c9 -2 25 -2 35 0 9 3 1 5 -18 5 -19 0 -27 -2 -17 -5z"/>
<path d="M2908 1233 c6 -2 18 -2 25 0 6 3 1 5 -13 5 -14 0 -19 -2 -12 -5z"/>
<path d="M2825 1189 c-20 -18 -40 -41 -46 -53 -6 -11 1 -7 15 11 15 17 39 41
54 52 15 11 24 21 20 21 -4 0 -23 -14 -43 -31z"/>
<path d="M2885 1159 c-4 -6 -5 -12 -2 -15 2 -3 7 2 10 11 7 17 1 20 -8 4z"/>
<path d="M2862 1080 c0 -14 2 -19 5 -12 2 6 2 18 0 25 -3 6 -5 1 -5 -13z"/>
<path d="M2731 1024 c0 -11 3 -14 6 -6 3 7 2 16 -1 19 -3 4 -6 -2 -5 -13z"/>
<path d="M1872 997 c-19 -6 -56 -30 -83 -55 -52 -47 -73 -47 -82 1 -5 32 -11
13 -41 -146 -27 -139 -73 -297 -140 -482 -20 -55 -36 -102 -36 -105 0 -20 33
53 65 143 38 107 38 107 59 90 l21 -18 -19 23 c-19 22 -19 23 7 110 15 48 30
102 33 120 6 32 24 55 24 31 0 -7 15 -30 34 -53 18 -23 46 -62 62 -87 32 -52
104 -133 125 -141 8 -3 47 -29 88 -57 41 -28 82 -51 90 -51 9 0 45 -9 79 -20
90 -28 93 -25 21 21 -97 62 -268 240 -307 318 -36 72 -42 138 -18 196 17 40
31 47 22 10 -9 -37 7 -30 29 12 22 41 92 90 142 99 18 3 33 10 33 14 0 20 105
-18 166 -61 53 -36 71 -33 22 4 -109 82 -287 119 -396 84z m135 -14 c-20 -2
-52 -2 -70 0 -17 2 0 4 38 4 39 0 53 -2 32 -4z m-117 -10 c-8 -3 -34 -17 -57
-30 -24 -14 -43 -22 -43 -20 0 10 84 57 100 56 13 -1 13 -1 0 -6z m-30 -47 c0
-2 -8 -10 -17 -17 -16 -13 -17 -12 -4 4 13 16 21 21 21 13z m-62 -60 c-13 -19
-24 -33 -26 -31 -5 4 37 65 44 65 2 0 -6 -15 -18 -34z m-31 -133 c-3 -10 -5
-4 -5 12 0 17 2 24 5 18 2 -7 2 -21 0 -30z m0 -80 c-3 -10 -5 -4 -5 12 0 17 2
24 5 18 2 -7 2 -21 0 -30z m100 -153 c26 -25 64 -58 83 -73 l35 -29 -40 28
c-85 58 -177 164 -175 201 1 4 12 -12 25 -37 12 -25 45 -66 72 -90z m207 -159
c-4 -4 -84 47 -84 54 0 2 20 -8 44 -23 24 -15 42 -29 40 -31z"/>
<path d="M2722 980 c0 -14 2 -19 5 -12 2 6 2 18 0 25 -3 6 -5 1 -5 -13z"/>
<path d="M2861 974 c0 -11 3 -14 6 -6 3 7 2 16 -1 19 -3 4 -6 -2 -5 -13z"/>
<path d="M2713 875 c0 -33 2 -45 4 -27 2 18 2 45 0 60 -2 15 -4 0 -4 -33z"/>
<path d="M2880 906 c0 -11 40 -86 45 -86 3 0 -4 19 -16 43 -23 45 -29 54 -29
43z"/>
<path d="M718 463 c7 -3 16 -2 19 1 4 3 -2 6 -13 5 -11 0 -14 -3 -6 -6z"/>
<path d="M651 425 c-17 -20 -31 -39 -31 -43 0 -4 12 8 26 25 14 18 33 37 42
43 9 5 12 10 6 10 -7 0 -26 -16 -43 -35z"/>
<path d="M760 456 c0 -2 7 -7 16 -10 8 -3 12 -2 9 4 -6 10 -25 14 -25 6z"/>
<path d="M1663 406 c22 -20 26 -30 18 -40 -6 -7 8 -4 32 8 24 12 40 22 36 24
-5 2 -16 -1 -26 -7 -14 -7 -26 -4 -53 16 l-35 25 28 -26z"/>
<path d="M1859 409 c-5 -22 0 -30 25 -44 30 -16 31 -16 9 2 -12 10 -23 29 -25
43 l-4 25 -5 -26z"/>
<path d="M763 378 c-24 -27 -46 -68 -40 -74 2 -3 10 9 17 25 17 43 45 64 74
59 14 -3 23 -1 20 3 -10 17 -51 9 -71 -13z"/>
<path d="M1808 393 c6 -2 18 -2 25 0 6 3 1 5 -13 5 -14 0 -19 -2 -12 -5z"/>
<path d="M605 359 c-4 -6 -5 -12 -2 -15 2 -3 7 2 10 11 7 17 1 20 -8 4z"/>
<path d="M1613 301 c-23 -30 -48 -51 -63 -54 l-25 -4 25 -1 c19 -2 35 11 67
53 24 30 41 55 38 55 -3 0 -22 -22 -42 -49z"/>
<path d="M923 295 c-24 -25 -43 -51 -43 -57 0 -7 11 4 25 24 13 19 37 45 52
57 15 11 24 21 19 21 -5 0 -29 -20 -53 -45z"/>
<path d="M582 318 c-14 -14 -16 -28 -3 -28 5 0 11 9 14 20 6 23 5 24 -11 8z"/>
<path d="M1659 313 c-13 -16 -12 -17 4 -4 16 13 21 21 13 21 -2 0 -10 -8 -17
-17z"/>
<path d="M1950 326 c0 -3 9 -10 20 -16 11 -6 20 -8 20 -6 0 3 -9 10 -20 16
-11 6 -20 8 -20 6z"/>
<path d="M1174 264 l-39 -35 43 32 c38 30 48 39 39 39 -2 0 -21 -16 -43 -36z"/>
<path d="M2034 276 c11 -9 24 -16 30 -16 12 0 7 5 -24 19 -24 11 -24 11 -6 -3z"/>
<path d="M540 259 c-7 -11 -10 -23 -7 -25 2 -2 9 7 15 21 14 30 7 33 -8 4z"/>
<path d="M962 245 c-17 -37 -14 -45 4 -12 9 16 14 31 11 33 -2 2 -9 -7 -15
-21z"/>
<path d="M1885 260 c-3 -6 1 -7 9 -4 18 7 21 14 7 14 -6 0 -13 -4 -16 -10z"/>
<path d="M1960 266 c0 -2 7 -7 16 -10 8 -3 12 -2 9 4 -6 10 -25 14 -25 6z"/>
<path d="M696 245 c-3 -9 -6 -22 -5 -28 0 -7 5 -1 10 12 5 13 8 26 5 28 -2 2
-6 -3 -10 -12z"/>
<path d="M1615 249 c-4 -6 -5 -12 -2 -15 2 -3 7 2 10 11 7 17 1 20 -8 4z"/>
<path d="M1826 210 c-20 -22 -36 -43 -36 -47 0 -4 3 -3 8 3 4 5 23 26 41 47
19 20 32 37 29 37 -3 0 -22 -18 -42 -40z"/>
<path d="M1556 215 c-9 -26 -7 -32 5 -12 6 10 9 21 6 23 -2 3 -7 -2 -11 -11z"/>
<path d="M530 196 c0 -2 8 -10 18 -17 15 -13 16 -12 3 4 -13 16 -21 21 -21 13z"/>
<path d="M936 185 c-9 -26 -7 -32 5 -12 6 10 9 21 6 23 -2 3 -7 -2 -11 -11z"/>
<path d="M690 182 c0 -6 -8 -13 -17 -16 -14 -4 -14 -4 2 -3 11 1 27 -3 35 -8
13 -8 13 -7 0 11 -8 10 -16 21 -17 23 -2 2 -3 -1 -3 -7z"/>
<path d="M1100 169 c-7 -11 -10 -23 -7 -25 2 -2 9 7 15 21 14 30 7 33 -8 4z"/>
<path d="M1466 163 c-6 -14 -5 -15 5 -6 7 7 10 15 7 18 -3 3 -9 -2 -12 -12z"/>
<path d="M1542 160 c0 -14 2 -19 5 -12 2 6 2 18 0 25 -3 6 -5 1 -5 -13z"/>
<path d="M578 163 c7 -3 16 -2 19 1 4 3 -2 6 -13 5 -11 0 -14 -3 -6 -6z"/>
<path d="M850 162 c0 -7 -8 -12 -17 -12 -15 0 -16 -2 -3 -10 10 -6 17 -4 23 6
5 9 6 18 3 21 -3 4 -6 1 -6 -5z"/>
<path d="M1581 136 c-1 -24 -3 -27 -16 -16 -8 7 -15 10 -15 7 0 -2 17 -17 38
-33 21 -16 30 -19 20 -8 -9 10 -18 33 -21 49 l-4 30 -2 -29z"/>
<path d="M738 143 c6 -2 18 -2 25 0 6 3 1 5 -13 5 -14 0 -19 -2 -12 -5z"/>
<path d="M921 134 c0 -11 3 -14 6 -6 3 7 2 16 -1 19 -3 4 -6 -2 -5 -13z"/>
<path d="M1416 91 c-16 -16 -41 -35 -57 -42 -17 -6 -28 -14 -25 -16 8 -8 60
25 90 56 17 17 27 31 25 31 -3 0 -18 -13 -33 -29z"/>
<path d="M911 94 c-1 -11 6 -29 15 -40 8 -10 12 -13 9 -6 -4 8 -11 26 -15 40
-7 22 -8 23 -9 6z"/>
<path d="M1070 73 c-4 -32 -2 -43 10 -47 8 -4 22 -9 30 -12 8 -3 5 1 -7 10
-14 11 -23 29 -25 54 l-3 37 -5 -42z"/>
<path d="M2498 93 c7 -3 16 -2 19 1 4 3 -2 6 -13 5 -11 0 -14 -3 -6 -6z"/>
<path d="M2428 83 c6 -2 18 -2 25 0 6 3 1 5 -13 5 -14 0 -19 -2 -12 -5z"/>
<path d="M2368 73 c7 -3 16 -2 19 1 4 3 -2 6 -13 5 -11 0 -14 -3 -6 -6z"/>
<path d="M1775 61 c3 -6 -16 -12 -42 -14 -45 -4 -44 -4 9 -4 47 0 56 3 47 14
-13 15 -23 18 -14 4z"/>
<path d="M2308 63 c7 -3 16 -2 19 1 4 3 -2 6 -13 5 -11 0 -14 -3 -6 -6z"/>
<path d="M2258 53 c7 -3 16 -2 19 1 4 3 -2 6 -13 5 -11 0 -14 -3 -6 -6z"/>
<path d="M2208 43 c7 -3 16 -2 19 1 4 3 -2 6 -13 5 -11 0 -14 -3 -6 -6z"/>
<path d="M2148 33 c6 -2 18 -2 25 0 6 3 1 5 -13 5 -14 0 -19 -2 -12 -5z"/>
<path d="M998 23 c12 -2 30 -2 40 0 9 3 -1 5 -23 4 -22 0 -30 -2 -17 -4z"/>
<path d="M1848 23 c7 -3 16 -2 19 1 4 3 -2 6 -13 5 -11 0 -14 -3 -6 -6z"/>
<path d="M2073 23 c9 -2 23 -2 30 0 6 3 -1 5 -18 5 -16 0 -22 -2 -12 -5z"/>
<path d="M1258 13 c7 -3 16 -2 19 1 4 3 -2 6 -13 5 -11 0 -14 -3 -6 -6z"/>
<path d="M1943 13 c15 -2 37 -2 50 0 12 2 0 4 -28 4 -27 0 -38 -2 -22 -4z"/>
<path d="M1158 3 c12 -2 32 -2 45 0 12 2 2 4 -23 4 -25 0 -35 -2 -22 -4z"/>
</g>
</svg>
