<?xml version="1.0" standalone="no"?>
<!DOCTYPE svg PUBLIC "-//W3C//DTD SVG 20010904//EN"
 "http://www.w3.org/TR/2001/REC-SVG-20010904/DTD/svg10.dtd">
<svg version="1.0" xmlns="http://www.w3.org/2000/svg"
 width="360.000000pt" height="360.000000pt" viewBox="0 0 360.000000 360.000000"
 preserveAspectRatio="xMidYMid meet">

<g transform="translate(0.000000,360.000000) scale(0.100000,-0.100000)"
fill="#000000" stroke="none">
<path d="M3288 3583 c21 -41 22 -85 3 -129 -16 -35 -35 -53 -103 -97 -98 -63
-202 -170 -241 -248 -63 -127 -57 -348 12 -438 l18 -24 22 22 c11 11 26 21 31
21 18 0 52 -41 46 -56 -4 -11 8 -14 67 -14 256 1 421 161 452 440 l7 65 -31
-35 c-35 -40 -36 -36 -16 40 20 76 19 130 -6 203 -29 85 -39 96 -57 61 l-15
-28 -12 39 c-25 85 -69 141 -137 176 -46 23 -51 24 -40 2z"/>
<path d="M838 3293 c-37 -6 -35 -16 5 -35 l32 -16 -60 -7 c-33 -4 -78 -14
-100 -22 -39 -13 -85 -49 -85 -65 0 -4 26 -8 58 -9 l57 0 -56 -18 c-80 -26
-79 -25 -53 -78 32 -63 34 -171 4 -214 -12 -15 -26 -43 -32 -61 -14 -42 -74
-125 -100 -139 -36 -19 -158 6 -211 43 -16 11 -30 18 -32 16 -15 -15 -35 -138
-35 -218 0 -52 -5 -113 -12 -135 -18 -62 -15 -228 6 -333 18 -90 19 -92 37
-76 11 10 21 15 23 13 2 -2 11 -31 19 -64 8 -33 25 -86 37 -118 l22 -57 25 20
c14 11 28 18 30 16 2 -2 10 -33 18 -69 7 -35 34 -110 60 -165 25 -56 54 -125
64 -153 10 -29 22 -54 28 -56 6 -2 30 14 52 35 23 21 41 35 41 30 0 -14 23 -9
80 18 30 14 56 21 58 16 2 -6 37 1 80 15 47 15 131 30 217 38 77 8 172 21 210
29 39 8 98 17 132 21 123 12 240 69 309 149 19 22 51 73 70 111 l35 70 -4 -62
c-4 -73 -1 -72 70 21 52 70 98 161 119 238 18 68 18 202 0 261 -8 27 -10 49
-5 53 5 3 14 15 20 27 7 15 3 12 -15 -8 -14 -16 -25 -33 -26 -37 0 -4 -19 -18
-42 -30 -56 -30 -189 -32 -259 -5 -40 15 -50 25 -67 65 -11 26 -29 91 -40 144
-12 53 -30 115 -41 137 -25 49 -25 51 -5 51 9 0 47 31 85 70 69 70 118 102
177 115 17 3 32 10 32 14 0 18 -48 77 -80 99 l-35 24 53 -4 53 -5 -33 34 c-38
40 -123 92 -153 94 -16 1 -15 2 5 8 24 7 23 9 -25 40 -108 69 -245 80 -359 28
l-58 -27 -45 40 c-63 55 -139 82 -243 85 -47 2 -97 1 -112 -2z m19 -385 c-2
-63 35 -133 89 -169 42 -27 54 -24 54 14 0 17 3 49 7 70 l6 38 41 -39 c48 -47
105 -77 171 -92 55 -12 68 -6 37 16 -28 19 -68 89 -77 134 l-8 35 40 -50 c22
-28 70 -78 107 -111 59 -53 70 -69 92 -132 33 -96 35 -219 4 -289 l-21 -47 31
-24 c76 -59 107 -177 77 -283 -41 -140 -201 -228 -417 -229 -113 -1 -151 -13
-216 -68 -63 -52 -90 -62 -172 -62 -76 0 -132 22 -174 66 -35 38 -48 74 -48
135 0 56 8 76 56 135 31 37 65 136 52 149 -2 3 -18 7 -34 11 -26 5 -30 2 -41
-26 -16 -42 -33 -34 -52 22 -9 26 -23 55 -32 65 -9 10 -24 33 -34 52 -22 43
-17 134 9 173 l18 28 32 -26 c17 -15 41 -46 54 -71 13 -24 29 -46 37 -50 8 -3
35 8 60 25 25 16 66 33 91 37 58 8 100 45 85 74 -23 43 -111 79 -219 89 l-67
7 56 18 c55 17 57 20 63 59 9 54 56 165 97 229 24 39 45 56 83 74 61 28 64 29
63 13z"/>
<path d="M734 2804 c-44 -46 -43 -60 2 -29 21 14 51 25 70 25 38 0 44 14 15
30 -33 17 -52 11 -87 -26z"/>
<path d="M674 2698 l-19 -23 23 19 c21 18 27 26 19 26 -2 0 -12 -10 -23 -22z"/>
<path d="M1163 2712 c-9 -6 1 -18 31 -39 25 -18 54 -49 65 -70 l20 -38 1 38
c1 81 -65 142 -117 109z"/>
<path d="M709 2665 c-33 -18 -43 -41 -22 -50 13 -4 14 -8 4 -18 -9 -9 -14 -9
-21 3 -7 11 -10 8 -10 -13 0 -27 2 -28 32 -21 32 6 42 14 75 63 16 22 16 24
-2 37 -23 17 -23 17 -56 -1z m24 -41 c-6 -16 -29 -19 -38 -4 -4 6 -1 17 5 26
15 18 42 0 33 -22z"/>
<path d="M1148 2603 c6 -2 18 -2 25 0 6 3 1 5 -13 5 -14 0 -19 -2 -12 -5z"/>
<path d="M1089 2579 l-24 -20 28 17 c15 9 27 18 27 20 0 8 -8 4 -31 -17z"/>
<path d="M1045 2529 c-4 -6 -5 -12 -2 -15 2 -3 7 2 10 11 7 17 1 20 -8 4z"/>
<path d="M1090 2490 c-31 -33 -42 -74 -32 -114 5 -19 20 -33 52 -47 24 -11 41
-17 37 -13 -3 4 7 22 23 41 24 27 30 43 30 82 0 81 -57 108 -110 51z m50 -11
c0 -20 -24 -26 -35 -9 -8 13 14 42 26 34 5 -3 9 -14 9 -25z m-38 -24 c0 -5 -5
-11 -11 -13 -6 -2 -11 4 -11 13 0 9 5 15 11 13 6 -2 11 -8 11 -13z"/>
<path d="M1242 2490 c0 -19 2 -27 5 -17 2 9 2 25 0 35 -3 9 -5 1 -5 -18z"/>
<path d="M1216 2393 c-6 -14 -5 -15 5 -6 7 7 10 15 7 18 -3 3 -9 -2 -12 -12z"/>
<path d="M1179 2343 l-24 -28 28 24 c25 23 32 31 24 31 -2 0 -14 -12 -28 -27z"/>
<path d="M925 2074 c-16 -7 -55 -16 -85 -20 -47 -5 -58 -11 -75 -38 -11 -17
-25 -31 -30 -31 -8 0 -33 39 -47 76 -2 4 -13 9 -25 13 -19 6 -22 2 -28 -33 -4
-22 -15 -51 -24 -63 -38 -49 -44 -68 -27 -93 15 -22 91 -55 129 -55 85 0 188
84 226 184 12 32 20 62 19 66 -2 4 -16 1 -33 -6z m-105 -184 c0 -14 -58 -42
-78 -38 -13 3 -8 10 18 26 37 23 60 28 60 12z m-100 -31 c0 -12 -37 -12 -44 0
-3 4 -3 11 0 14 8 7 44 -4 44 -14z"/>
<path d="M353 3015 c-59 -25 -82 -118 -46 -192 32 -68 162 -136 228 -119 23 6
25 11 25 71 0 133 -35 211 -107 241 -40 17 -59 17 -100 -1z"/>
<path d="M2040 2806 c0 -2 8 -10 18 -17 15 -13 16 -12 3 4 -13 16 -21 21 -21
13z"/>
<path d="M219 2755 c5 -11 17 -29 26 -40 l16 -20 -10 20 c-5 11 -17 29 -26 40
l-16 20 10 -20z"/>
<path d="M1860 2699 c-27 -11 -90 -68 -90 -81 0 -5 -21 -43 -46 -85 l-47 -77
29 -24 c16 -13 53 -35 82 -49 86 -41 154 -19 196 63 46 87 11 244 -57 258 -36
7 -36 7 -67 -5z"/>
<path d="M2122 2645 c0 -16 2 -22 5 -12 2 9 2 23 0 30 -3 6 -5 -1 -5 -18z"/>
<path d="M3052 2560 c0 -14 2 -19 5 -12 2 6 2 18 0 25 -3 6 -5 1 -5 -13z"/>
<path d="M2953 2530 c0 -25 2 -35 4 -22 2 12 2 32 0 45 -2 12 -4 2 -4 -23z"/>
<path d="M2122 2525 c0 -16 2 -22 5 -12 2 9 2 23 0 30 -3 6 -5 -1 -5 -18z"/>
<path d="M2111 2474 c0 -11 3 -14 6 -6 3 7 2 16 -1 19 -3 4 -6 -2 -5 -13z"/>
<path d="M3052 2450 c0 -14 2 -19 5 -12 2 6 2 18 0 25 -3 6 -5 1 -5 -13z"/>
<path d="M2961 2444 c0 -11 3 -14 6 -6 3 7 2 16 -1 19 -3 4 -6 -2 -5 -13z"/>
<path d="M3060 2409 c0 -32 87 -245 97 -235 2 2 -7 27 -21 54 -14 28 -37 84
-51 124 -13 40 -25 66 -25 57z"/>
<path d="M3161 2155 c0 -5 6 -21 14 -35 8 -14 14 -20 14 -15 0 6 -6 21 -14 35
-8 14 -14 21 -14 15z"/>
<path d="M3197 2070 c3 -14 12 -41 20 -60 11 -30 12 -31 8 -6 -4 16 -13 43
-20 60 -11 23 -13 25 -8 6z"/>
<path d="M3231 1954 c0 -11 3 -14 6 -6 3 7 2 16 -1 19 -3 4 -6 -2 -5 -13z"/>
<path d="M3142 1930 c0 -14 2 -19 5 -12 2 6 2 18 0 25 -3 6 -5 1 -5 -13z"/>
<path d="M3242 1905 c0 -16 2 -22 5 -12 2 9 2 23 0 30 -3 6 -5 -1 -5 -18z"/>
<path d="M3253 1815 c0 -27 2 -38 4 -22 2 15 2 37 0 50 -2 12 -4 0 -4 -28z"/>
<path d="M3142 1800 c0 -14 2 -19 5 -12 2 6 2 18 0 25 -3 6 -5 1 -5 -13z"/>
<path d="M3242 1730 c0 -14 2 -19 5 -12 2 6 2 18 0 25 -3 6 -5 1 -5 -13z"/>
<path d="M3111 1713 c-10 -26 -10 -27 4 -9 8 11 15 23 15 28 0 15 -7 8 -19
-19z"/>
<path d="M3231 1693 c-1 -6 -4 -20 -7 -30 -5 -17 -5 -17 6 0 6 10 9 23 6 30
-3 9 -5 9 -5 0z"/>
<path d="M2488 1673 c17 -2 47 -2 65 0 17 2 3 4 -33 4 -36 0 -50 -2 -32 -4z"/>
<path d="M3180 1584 c-37 -60 -82 -95 -156 -124 -27 -10 -43 -19 -36 -20 20 0
83 28 124 57 34 23 115 129 106 138 -2 2 -19 -21 -38 -51z"/>
<path d="M1968 1603 c7 -3 16 -2 19 1 4 3 -2 6 -13 5 -11 0 -14 -3 -6 -6z"/>
<path d="M2018 1603 c12 -2 32 -2 45 0 12 2 2 4 -23 4 -25 0 -35 -2 -22 -4z"/>
<path d="M2183 1593 c9 -2 25 -2 35 0 9 3 1 5 -18 5 -19 0 -27 -2 -17 -5z"/>
<path d="M2800 1586 c0 -2 8 -10 18 -17 15 -13 16 -12 3 4 -13 16 -21 21 -21
13z"/>
<path d="M2888 1553 c7 -3 16 -2 19 1 4 3 -2 6 -13 5 -11 0 -14 -3 -6 -6z"/>
<path d="M2880 1506 c0 -2 8 -10 18 -17 15 -13 16 -12 3 4 -13 16 -21 21 -21
13z"/>
<path d="M2938 1433 c7 -3 16 -2 19 1 4 3 -2 6 -13 5 -11 0 -14 -3 -6 -6z"/>
<path d="M2972 1310 c0 -14 2 -19 5 -12 2 6 2 18 0 25 -3 6 -5 1 -5 -13z"/>
<path d="M2983 1200 c0 -47 2 -66 4 -42 2 23 2 61 0 85 -2 23 -4 4 -4 -43z"/>
<path d="M820 1221 c0 -7 -4 -10 -9 -7 -5 4 -7 -4 -3 -16 l5 -22 9 24 c5 12 6
25 3 28 -3 3 -5 0 -5 -7z"/>
<path d="M2153 1120 c0 -25 2 -35 4 -22 2 12 2 32 0 45 -2 12 -4 2 -4 -23z"/>
<path d="M2972 1075 c0 -16 2 -22 5 -12 2 9 2 23 0 30 -3 6 -5 -1 -5 -18z"/>
<path d="M2161 1024 c0 -11 3 -14 6 -6 3 7 2 16 -1 19 -3 4 -6 -2 -5 -13z"/>
<path d="M2961 1024 c0 -11 3 -14 6 -6 3 7 2 16 -1 19 -3 4 -6 -2 -5 -13z"/>
<path d="M694 988 l-19 -23 23 19 c21 18 27 26 19 26 -2 0 -12 -10 -23 -22z"/>
<path d="M2171 990 c0 -8 4 -22 9 -30 12 -18 12 -2 0 25 -6 13 -9 15 -9 5z"/>
<path d="M2951 984 c0 -11 3 -14 6 -6 3 7 2 16 -1 19 -3 4 -6 -2 -5 -13z"/>
<path d="M2941 944 c0 -11 3 -14 6 -6 3 7 2 16 -1 19 -3 4 -6 -2 -5 -13z"/>
<path d="M629 913 l-34 -38 38 34 c34 33 42 41 34 41 -2 0 -19 -17 -38 -37z"/>
<path d="M2931 904 c0 -11 3 -14 6 -6 3 7 2 16 -1 19 -3 4 -6 -2 -5 -13z"/>
<path d="M1211 850 c-17 -27 -58 -73 -89 -101 -31 -29 -43 -42 -25 -30 39 26
119 115 139 153 22 43 11 33 -25 -22z"/>
<path d="M2923 805 c0 -44 2 -61 4 -37 2 23 2 59 0 80 -2 20 -4 1 -4 -43z"/>
<path d="M559 853 c-13 -16 -12 -17 4 -4 9 7 17 15 17 17 0 8 -8 3 -21 -13z"/>
<path d="M2269 804 c8 -10 41 -44 74 -75 l60 -56 -30 -44 c-36 -52 -123 -212
-123 -225 0 -5 23 34 51 86 28 52 66 116 85 143 19 26 30 47 25 47 -5 0 -42
32 -82 72 -41 39 -68 63 -60 52z"/>
<path d="M404 754 c-18 -14 -18 -15 4 -4 12 6 22 13 22 15 0 8 -5 6 -26 -11z"/>
<path d="M268 689 c-32 -16 -58 -32 -58 -34 0 -5 119 52 129 61 13 12 -22 -1
-71 -27z"/>
<path d="M2931 704 c0 -11 3 -14 6 -6 3 7 2 16 -1 19 -3 4 -6 -2 -5 -13z"/>
<path d="M1011 670 c-59 -39 -65 -48 -13 -19 24 13 48 29 54 36 14 18 9 16
-41 -17z"/>
<path d="M2941 673 c-1 -14 36 -103 43 -103 3 0 -3 19 -13 43 -10 23 -20 49
-24 57 -3 8 -6 10 -6 3z"/>
<path d="M2455 640 c10 -11 20 -20 23 -20 3 0 -3 9 -13 20 -10 11 -20 20 -23
20 -3 0 3 -9 13 -20z"/>
<path d="M179 633 c-13 -16 -12 -17 4 -4 9 7 17 15 17 17 0 8 -8 3 -21 -13z"/>
<path d="M890 600 c-30 -16 -51 -29 -47 -30 10 0 107 49 107 55 0 7 1 7 -60
-25z"/>
<path d="M1512 600 c0 -14 2 -19 5 -12 2 6 2 18 0 25 -3 6 -5 1 -5 -13z"/>
<path d="M2570 535 c35 -36 67 -65 69 -65 3 0 -24 29 -59 65 -35 36 -67 65
-69 65 -3 0 24 -29 59 -65z"/>
<path d="M790 555 c-14 -8 -20 -14 -15 -14 6 0 21 6 35 14 14 8 21 14 15 14
-5 0 -21 -6 -35 -14z"/>
<path d="M1522 555 c0 -11 3 -29 8 -40 11 -25 11 1 0 35 -6 20 -8 21 -8 5z"/>
<path d="M2994 550 c13 -41 56 -133 56 -120 0 8 -14 42 -30 75 -17 33 -28 53
-26 45z"/>
<path d="M730 530 c-8 -5 -10 -10 -5 -10 6 0 17 5 25 10 8 5 11 10 5 10 -5 0
-17 -5 -25 -10z"/>
<path d="M604 480 c-33 -16 -71 -42 -85 -57 l-24 -27 35 29 c19 15 62 41 95
56 33 16 55 28 49 29 -6 0 -38 -13 -70 -30z"/>
<path d="M501 454 c0 -11 3 -14 6 -6 3 7 2 16 -1 19 -3 4 -6 -2 -5 -13z"/>
<path d="M1552 440 c0 -14 2 -19 5 -12 2 6 2 18 0 25 -3 6 -5 1 -5 -13z"/>
<path d="M1563 370 c0 -25 2 -35 4 -22 2 12 2 32 0 45 -2 12 -4 2 -4 -23z"/>
<path d="M3052 385 c0 -16 2 -22 5 -12 2 9 2 23 0 30 -3 6 -5 -1 -5 -18z"/>
<path d="M2226 344 c-9 -26 -14 -49 -12 -51 2 -2 11 17 20 43 9 26 14 49 12
51 -2 2 -11 -17 -20 -43z"/>
<path d="M2692 360 c0 -14 2 -19 5 -12 2 6 2 18 0 25 -3 6 -5 1 -5 -13z"/>
<path d="M3061 314 c0 -11 3 -14 6 -6 3 7 2 16 -1 19 -3 4 -6 -2 -5 -13z"/>
<path d="M3051 245 c-1 -11 -4 -31 -6 -45 l-6 -25 11 25 c6 13 9 33 7 45 -4
19 -4 19 -6 0z"/>
</g>
</svg>
