<?xml version="1.0" standalone="no"?>
<!DOCTYPE svg PUBLIC "-//W3C//DTD SVG 20010904//EN"
 "http://www.w3.org/TR/2001/REC-SVG-20010904/DTD/svg10.dtd">
<svg version="1.0" xmlns="http://www.w3.org/2000/svg"
 width="360.000000pt" height="360.000000pt" viewBox="0 0 360.000000 360.000000"
 preserveAspectRatio="xMidYMid meet">

<g transform="translate(0.000000,360.000000) scale(0.100000,-0.100000)"
fill="#000000" stroke="none">
<path d="M1003 3458 c-13 -6 -23 -18 -23 -26 0 -25 39 -80 81 -112 21 -18 39
-37 39 -44 0 -28 42 -65 93 -82 73 -23 72 -22 30 -53 -113 -83 -200 -226 -209
-346 -6 -66 -4 -72 23 -110 16 -22 88 -100 159 -174 71 -74 121 -132 111 -128
-29 11 -240 21 -281 13 -56 -11 -76 -36 -76 -98 1 -191 143 -381 325 -433 84
-25 186 -16 269 23 l64 30 58 -19 c31 -10 74 -19 96 -19 30 0 38 -4 38 -19 0
-13 16 -25 53 -41 28 -12 62 -29 75 -37 l23 -14 -63 -58 c-35 -32 -91 -82
-126 -110 -75 -62 -88 -90 -67 -132 9 -16 22 -29 30 -29 23 0 19 -12 -27 -76
-96 -136 -110 -149 -190 -169 -69 -17 -77 -17 -130 -1 -31 9 -72 16 -91 16
-29 0 -37 -5 -47 -30 -23 -56 26 -120 92 -120 13 0 33 -3 44 -6 l22 -6 -29
-79 c-20 -55 -29 -98 -29 -141 0 -59 1 -62 43 -101 66 -62 76 -66 134 -58 64
9 86 28 127 108 42 84 148 193 187 193 19 0 42 12 69 36 22 20 40 32 40 26 0
-6 -16 -65 -35 -132 -43 -149 -43 -170 -6 -212 22 -25 27 -38 20 -55 -9 -25
-19 -29 -122 -42 -175 -24 -354 -5 -462 48 -77 38 -195 158 -253 257 -93 162
-212 417 -278 601 -115 320 -212 459 -378 537 -82 39 -173 60 -217 51 -48 -11
-29 -28 47 -42 88 -16 205 -74 258 -127 23 -23 64 -85 93 -141 53 -105 77
-160 199 -465 41 -102 113 -264 161 -360 84 -170 88 -177 182 -271 118 -119
209 -168 361 -195 106 -19 312 -23 376 -7 l41 10 47 -70 c25 -39 44 -72 42
-74 -4 -4 -191 23 -249 37 -56 13 -139 12 -174 -1 -44 -16 -83 -59 -83 -91 0
-15 5 -28 11 -28 7 0 17 -8 24 -17 11 -15 38 -17 241 -18 205 0 235 2 283 20
l54 20 24 85 c13 46 26 86 28 88 4 4 198 31 226 32 9 0 78 -52 153 -115 76
-63 150 -118 165 -121 38 -9 230 -58 341 -88 127 -34 226 -35 263 -3 34 29 34
47 0 88 -47 55 -76 62 -313 70 -118 4 -222 10 -231 13 -9 4 -30 37 -47 74 -30
66 -67 181 -60 187 1 1 28 10 59 19 117 33 179 106 159 188 -61 251 -66 319
-26 357 l22 21 56 -54 c45 -44 70 -59 124 -75 43 -14 91 -39 135 -72 86 -63
123 -75 150 -48 10 10 30 19 44 19 21 0 30 9 45 43 40 87 13 160 -89 248 -28
24 -63 62 -77 83 -23 34 -24 41 -12 50 67 50 39 185 -39 186 -16 0 -32 -15
-56 -52 l-34 -53 -57 3 c-35 3 -62 -1 -72 -8 -11 -10 -18 -10 -32 3 -9 8 -54
40 -100 70 -45 31 -132 95 -192 144 -107 86 -109 88 -82 97 41 13 52 26 52 57
0 44 -28 53 -187 57 l-142 4 25 50 26 50 -27 28 -26 27 66 63 c80 77 125 161
126 235 2 87 20 146 49 157 73 28 233 61 302 62 42 0 80 4 84 9 11 10 -101 9
-176 -4 -36 -5 -105 -22 -154 -36 -87 -26 -89 -27 -103 -7 -13 18 -10 23 42
71 30 29 88 71 128 93 89 49 80 53 -13 5 -37 -20 -93 -59 -124 -87 -58 -51
-58 -51 -86 -35 -15 9 -61 21 -101 27 -40 6 -74 11 -75 13 -1 1 -11 21 -23 44
-11 23 -25 44 -30 47 -5 4 6 32 25 63 28 47 34 66 34 115 0 66 -17 106 -56
137 -66 52 -144 34 -250 -59 -37 -33 -70 -60 -74 -60 -14 0 -354 293 -374 323
-12 18 -32 33 -44 35 -12 2 -29 16 -37 32 -36 69 -133 150 -181 150 -12 0 -47
12 -78 26 -64 29 -159 40 -193 22z m197 -38 c25 -12 70 -40 100 -62 52 -37 53
-38 18 -5 -49 45 -48 54 3 25 44 -24 129 -112 129 -132 0 -7 -18 -18 -40 -25
-21 -6 -46 -21 -55 -33 l-15 -22 -77 23 c-89 26 -143 56 -143 78 0 14 12 15
83 10 59 -3 75 -2 57 5 -14 5 -54 12 -89 14 -62 3 -67 6 -114 51 -90 89 -85
106 28 100 47 -3 85 -11 115 -27z m335 -260 c14 -27 25 -52 25 -56 0 -3 -21
-3 -47 1 -61 8 -153 50 -153 68 0 21 39 36 97 36 l53 1 25 -50z m683 -190 c17
-11 32 -25 32 -31 0 -6 -7 -4 -15 4 -8 9 -30 21 -49 27 -49 16 -71 1 -151
-100 -37 -47 -69 -87 -71 -89 -2 -2 -7 -2 -10 2 -8 7 130 183 154 197 27 15
75 11 110 -10z m-348 -138 c0 -20 -104 -92 -132 -92 -81 0 -138 -59 -138 -142
0 -35 -8 -59 -29 -93 -16 -26 -35 -68 -41 -96 -12 -48 -13 -49 -50 -49 -21 0
-52 3 -69 6 -27 6 -31 11 -31 38 0 90 54 197 142 282 84 82 168 126 273 143
70 12 75 12 75 3z m288 -138 c0 -12 14 -42 31 -65 35 -48 38 -59 16 -59 -8 0
-24 19 -36 43 -12 23 -37 62 -55 86 -44 57 -43 67 5 41 27 -16 39 -29 39 -46z
m-268 -25 c35 -18 91 -59 125 -90 59 -53 62 -58 46 -73 -15 -16 -13 -16 21 -1
24 10 69 15 127 15 80 0 89 -2 94 -20 6 -23 34 -35 99 -45 44 -7 46 -6 56 24
15 42 29 39 43 -9 10 -33 9 -47 -5 -84 -21 -55 -59 -89 -146 -130 -61 -29 -72
-31 -180 -31 -91 0 -122 4 -147 18 -38 20 -42 33 -13 42 11 3 20 11 20 16 0
11 -43 -14 -77 -45 -13 -11 -23 -27 -23 -35 0 -11 6 -9 20 9 18 24 20 24 47 8
20 -11 37 -38 59 -95 18 -43 40 -97 49 -121 10 -24 28 -50 41 -59 21 -14 27
-14 47 -1 12 9 40 46 61 84 28 49 52 77 81 95 28 18 50 42 65 74 13 27 41 66
63 88 l40 40 -7 -39 c-12 -63 -55 -135 -124 -206 -36 -38 -70 -68 -76 -68 -6
0 -5 5 2 12 15 15 16 32 2 23 -6 -4 -24 -34 -41 -68 -41 -82 -56 -97 -94 -97
-35 0 -57 14 -126 84 -26 25 -52 46 -60 46 -18 0 98 -117 135 -137 27 -14 62
-14 97 1 13 5 19 -1 28 -26 11 -29 9 -35 -10 -50 -35 -29 -56 -21 -129 47 -38
36 -75 66 -82 67 -7 1 -62 2 -123 3 -99 0 -116 3 -172 29 -80 37 -102 61 -109
122 -7 57 16 155 47 209 l21 36 -27 60 c-33 74 -43 184 -23 244 28 83 138 98
258 34z m335 -15 c19 -26 35 -56 35 -68 -1 -16 -4 -14 -15 12 -8 17 -20 32
-28 32 -15 0 -47 41 -47 60 0 22 21 8 55 -36z m110 -104 c-3 -5 -39 -9 -78 -9
-62 2 -66 3 -32 9 63 11 117 11 110 0z m-1131 -210 c75 -19 229 -92 274 -130
21 -17 22 -23 13 -57 -26 -93 -7 -164 54 -206 l35 -24 -57 -23 c-80 -31 -184
-35 -260 -9 -123 41 -229 161 -278 314 -30 96 -31 109 -5 135 27 27 120 27
224 0z m1190 -111 c-19 -37 -58 -79 -74 -79 -19 0 29 79 58 94 15 8 28 15 30
16 1 0 -5 -14 -14 -31z m-64 -17 c0 -4 -12 -24 -26 -45 -22 -33 -30 -38 -57
-35 -28 3 -32 7 -35 34 -3 29 -1 31 50 41 29 5 56 11 61 11 4 1 7 -1 7 -6z
m289 -382 c14 -8 14 -9 -2 -16 -32 -12 -200 2 -237 19 -34 17 -32 17 94 11 72
-3 137 -9 145 -14z m-126 -36 c40 -4 89 -2 110 4 30 8 37 8 37 -3 0 -45 -130
-44 -247 0 -40 15 -73 31 -73 35 0 5 23 -1 51 -11 27 -11 83 -22 122 -25z
m-508 -66 c-20 -67 -95 -156 -179 -212 -53 -35 -31 -33 25 2 57 37 112 98 144
163 15 28 29 49 31 46 12 -11 -72 -154 -118 -204 -54 -57 -107 -81 -152 -69
-34 8 -33 24 2 29 25 4 25 4 -5 6 -46 2 -43 25 9 70 23 20 80 71 127 113 88
79 128 98 116 56z m669 -140 c8 -12 21 -46 27 -76 11 -45 10 -55 -2 -63 -21
-13 -32 -6 -56 37 -30 52 -32 124 -4 124 11 0 27 -10 35 -22z m-332 -25 c48
-56 50 -193 3 -193 -35 0 -70 143 -46 188 14 27 23 27 43 5z m-59 -40 c-4 -43
3 -76 33 -148 7 -18 6 -19 -11 -5 -27 22 -45 73 -45 128 0 38 12 72 26 72 0 0
-1 -21 -3 -47z m342 -40 c14 -33 14 -38 -1 -54 -9 -10 -32 -23 -51 -30 -39
-12 -148 -8 -162 7 -5 5 -11 28 -14 51 -5 41 -4 42 20 32 40 -15 115 -10 153
10 19 10 36 19 37 20 2 0 10 -15 18 -36z m659 15 c22 -31 20 -77 -5 -117 -15
-25 -23 -31 -32 -22 -6 6 -17 11 -24 11 -13 0 0 -16 146 -172 67 -72 92 -106
97 -133 9 -50 -1 -54 -24 -8 -28 52 -83 114 -123 137 -28 15 -24 9 22 -35 94
-90 131 -166 99 -204 -24 -29 -48 -18 -60 26 -11 41 -104 149 -127 149 -6 0
15 -26 47 -58 65 -65 91 -125 66 -151 -21 -21 -53 -8 -128 52 -51 41 -84 58
-141 75 -60 18 -83 30 -121 67 -43 43 -57 77 -37 89 5 3 20 31 35 62 25 52 29
56 54 49 31 -7 65 -23 107 -50 25 -16 28 -17 17 -3 -17 21 -109 68 -134 68
-14 0 -18 8 -18 36 0 30 4 37 33 48 18 8 51 12 78 9 49 -5 46 -7 102 72 22 31
51 32 71 3z m-500 -314 c3 -25 15 -66 25 -90 21 -45 15 -56 -14 -27 -25 24
-35 58 -35 114 0 62 15 64 24 3z m35 14 c17 -51 29 -128 21 -128 -11 0 -38 72
-46 120 -8 49 10 54 25 8z m-1026 1 c26 -7 41 -18 47 -35 17 -43 11 -49 -20
-19 -22 21 -42 29 -79 33 -28 2 -56 11 -62 18 -9 12 -4 14 32 14 24 0 61 -5
82 -11z m-395 -19 c50 -11 73 -12 120 -2 69 14 162 16 162 3 0 -5 -8 -12 -19
-16 -10 -3 -27 -15 -37 -27 l-19 -22 36 22 c46 28 113 29 156 2 67 -40 53
-107 -47 -214 -37 -40 -84 -105 -105 -145 -38 -72 -74 -109 -95 -96 -26 16 -4
180 31 228 27 37 18 46 -10 11 -29 -37 -51 -117 -51 -186 0 -51 -2 -58 -20
-58 -11 0 -30 10 -41 21 -19 19 -21 30 -17 93 3 49 13 91 32 131 23 50 24 56
7 41 -27 -25 -61 -130 -61 -189 0 -43 -2 -48 -15 -37 -44 37 -36 160 19 284
14 33 24 61 21 64 -2 3 -7 -2 -11 -11 -4 -12 -14 -15 -37 -11 -92 16 -127 42
-127 95 0 45 2 46 128 19z m1026 -62 c26 -40 30 -95 11 -143 -13 -36 -22 -45
-40 -45 -19 0 -26 8 -34 38 -15 51 -14 96 3 137 17 40 39 45 60 13z m-72 -5
c-20 -38 -23 -99 -8 -144 l15 -44 -25 28 c-19 22 -24 39 -24 80 0 31 6 62 16
75 18 26 39 30 26 5z m418 -42 c14 -28 13 -33 -19 -81 -39 -58 -93 -90 -154
-90 -53 0 -79 10 -117 46 -21 19 -25 30 -22 68 4 45 4 45 27 30 13 -8 49 -18
79 -21 62 -6 131 14 161 47 23 25 32 25 45 1z"/>
<path d="M1724 2635 c-23 -35 -11 -99 32 -171 24 -39 31 -61 24 -68 -20 -20
-9 -29 13 -9 32 30 82 53 130 62 37 6 42 10 39 31 -6 39 -62 120 -105 151 -53
38 -109 40 -133 4z m111 -10 c43 -24 115 -117 115 -146 0 -20 -82 -37 -88 -19
-9 25 -56 71 -70 68 -9 -2 -19 -14 -22 -28 l-6 -25 -16 30 c-29 56 -33 100 -9
124 27 27 45 26 96 -4z"/>
<path d="M2045 2415 c-80 -17 -40 -17 55 0 42 7 60 13 40 13 -19 0 -62 -6 -95
-13z"/>
<path d="M1857 2370 c-85 -29 -147 -56 -147 -65 0 -2 25 7 56 21 31 13 90 34
132 45 43 12 79 23 81 25 13 12 -46 0 -122 -26z"/>
<path d="M2090 2366 c-137 -48 -309 -151 -355 -212 -15 -19 -25 -38 -22 -41 3
-2 13 7 22 21 41 62 241 183 366 221 30 9 63 20 74 25 l20 9 -20 0 c-11 0 -49
-10 -85 -23z"/>
<path d="M2621 1561 c-1 -25 38 -116 46 -107 2 2 -3 19 -13 38 -10 18 -21 47
-25 63 -6 27 -7 27 -8 6z"/>
<path d="M2785 2715 c-25 -12 -26 -14 -5 -9 14 4 29 10 35 15 12 12 5 11 -30
-6z"/>
</g>
</svg>
